<svg xmlns="http://www.w3.org/2000/svg" viewBox="15.78 339.08 566.94 161.51">
<g>
	<path fill="#FFFFFF" d="M196.97,500.59c-18.04,0-27.56-14.65-27.56-30.79c0-16.14,9.6-30.05,28.14-30.05
		c12.91,0,22.34,6.71,23.75,19.62h-7.53c-0.99-8.11-7.53-13-16.55-13c-13.66,0-20.53,11.09-20.53,23.34
		c0,12.5,7.03,24.17,20.94,24.17c9.27,0,16.3-5.13,16.55-15.14h7.45C221.39,492.22,210.63,500.59,196.97,500.59 M266.49,478.24
		c0,13.49-8.36,21.76-20.19,21.76c-11.75,0-20.11-8.27-20.11-21.76c0-13.41,8.36-21.77,20.11-21.77
		C258.13,456.47,266.49,464.84,266.49,478.24 M246.21,462.76c-7.86,0-12.99,5.96-12.99,15.48c0,10.1,5.71,15.48,13.24,15.48
		c7.86,0,13-5.96,13-15.48C259.46,468.13,253.75,462.76,246.21,462.76 M331.46,469.62v29.47h-6.87v-27.23c0-6.37-3.56-9.1-8.36-9.1
		c-6.37,0-10.34,4.88-10.34,13.74v22.6h-6.79v-27.23c0-6.29-3.56-9.1-8.36-9.1c-6.21,0-10.34,4.8-10.34,13.66v22.68h-6.87v-41.88
		h6.71v6.79c2.32-5.38,6.62-7.53,11.58-7.53c6.54,0,11.17,3.89,12.33,8.86c1.33-3.64,4.55-8.86,13.33-8.86
		C325.42,456.47,331.46,460.77,331.46,469.62 M398.91,469.62v29.47h-6.87v-27.23c0-6.37-3.56-9.1-8.36-9.1
		c-6.37,0-10.34,4.88-10.34,13.74v22.6h-6.79v-27.23c0-6.29-3.56-9.1-8.36-9.1c-6.21,0-10.35,4.8-10.35,13.66v22.68h-6.87v-41.88
		h6.7v6.79c2.32-5.38,6.62-7.53,11.59-7.53c6.54,0,11.17,3.89,12.33,8.86c1.32-3.64,4.55-8.86,13.32-8.86
		C392.87,456.47,398.91,460.77,398.91,469.62 M412.23,479.9c0.25,9.43,5.88,13.99,13.08,13.99c5.22,0,9.52-2.48,10.92-6.95h6.79
		c-2.15,8.94-10.1,13.08-18.04,13.08c-10.02,0-19.45-6.87-19.45-21.85c0-15.06,9.52-21.68,19.53-21.68
		c10.02,0,18.29,6.46,18.29,20.19v3.23L412.23,479.9L412.23,479.9z M412.39,474.35h24.08c0-7.28-4.8-11.92-11.59-11.92
		C418.85,462.44,413.31,465.74,412.39,474.35 M471.98,463.34h-1.9c-8.19,0-12.83,4.64-12.83,13.99v21.77h-6.87v-41.88h6.79v7.28
		c2.15-5.13,6.62-7.7,12.83-7.7h1.99L471.98,463.34L471.98,463.34z M510.8,484.11c-0.66,10.43-8.94,15.89-18.05,15.89
		c-10.68,0-19.53-6.87-19.53-21.52c0-14.24,8.44-22.02,20.27-22.02c9.6,0,17.05,5.3,17.38,15.31h-6.7
		c-0.33-5.46-4.38-9.35-11.01-9.35c-7.28,0-12.99,4.88-12.99,15.64c0,11.34,6.37,15.72,12.74,15.72c5.88,0,10.85-3.72,11.09-9.68
		L510.8,484.11L510.8,484.11z M517.75,457.21h6.87v41.88h-6.87V457.21z M566.33,469.79v29.3h-6.7v-6.79
		c-3.81,6.04-10.18,7.69-14.81,7.69c-7.29,0-13.32-4.14-13.32-12.16c0-10.02,8.85-11.67,12.66-12.33l8.28-1.41
		c4.3-0.74,7.12-1.57,7.12-5.54c0-4.22-3.39-6.04-8.52-6.04c-6.46,0-10.18,2.82-11.26,7.37h-6.95c1.24-8.69,8.86-13.41,18.54-13.41
		C560.45,456.47,566.33,460.44,566.33,469.79 M552.35,479.24l-5.05,0.83c-4.22,0.66-8.86,1.57-8.86,7.2c0,4.89,3.48,6.62,7.78,6.62
		c6.62,0,13.25-4.22,13.25-12.74v-3.81C557.48,478.24,555.82,478.66,552.35,479.24 M582.72,499.1h-6.87v-58.85h6.87V499.1z
		 M521.19,438.94c-2.6,0-4.7,2.1-4.7,4.7c0,2.6,2.1,4.7,4.7,4.7c2.59,0,4.7-2.1,4.7-4.7C525.88,441.04,523.78,438.94,521.19,438.94"
		/>
	<path fill="#FFFFFF" d="M215.51,409.27c0,8.28-6.62,16.72-19.37,16.72H172.3v-57.94h25c10.68,0,15.64,6.29,15.64,13.08
		c0,5.21-2.9,10.92-8.69,13.49C211.87,397.19,215.51,403.06,215.51,409.27 M194.9,392.31c7.45,0,10.93-4.88,10.93-9.52
		c0-4.3-2.9-8.35-9.6-8.35h-16.88v17.87H194.9z M208.23,409.1c0-5.46-3.73-10.59-11.26-10.59h-17.63v21.1h17.05
		C204.76,419.62,208.23,414.4,208.23,409.1 M229.83,425.99h-6.87v-58.85h6.87V425.99z M273.77,425.99h-6.7v-7.37
		c-2.9,5.55-7.61,7.86-13.16,7.86c-8.11,0-14.57-5.3-14.57-15.06V384.1h6.87v26.16c0,6.7,3.98,10.09,9.19,10.09
		c5.88,0,11.5-4.8,11.5-15.06V384.1h6.87V425.99L273.77,425.99z M287.51,406.79c0.24,9.44,5.88,13.99,13.07,13.99
		c5.22,0,9.52-2.48,10.93-6.95h6.79c-2.15,8.94-10.1,13.08-18.04,13.08c-10.02,0-19.45-6.87-19.45-21.85
		c0-15.06,9.52-21.68,19.53-21.68c10.02,0,18.29,6.46,18.29,20.2v3.23h-31.12V406.79z M287.68,401.23h24.09
		c0-7.28-4.8-11.92-11.59-11.92C294.13,389.33,288.59,392.63,287.68,401.23 M363.06,425.99h-36.42v-57.94h7.12v51.56h29.3V425.99z
		 M368.69,384.1h6.87v41.88h-6.87V384.1z M466.43,397.6v28.39h-6.87v-27.72c0-4.55-2.73-8.69-9.1-8.69
		c-7.45,0-12.33,5.71-12.33,14.98V426h-6.87v-58.85h6.87v24.41c2.4-4.63,6.54-8.19,13.57-8.19
		C460.31,383.37,466.43,388.5,466.43,397.6 M496.31,425.99h-6.04c-6.04,0-11.67-1.41-11.67-11.17v-24.58h-8.03v-6.13h8.03v-11.17
		l6.87-1.9v13.08h9.85v6.13h-9.85V414c0,3.48,0.74,5.87,5.54,5.87h5.3V425.99L496.31,425.99z M372.11,365.85
		c-2.59,0-4.7,2.1-4.7,4.7c0,2.59,2.1,4.7,4.7,4.7c2.6,0,4.7-2.11,4.7-4.7S374.71,365.85,372.11,365.85 M421.53,423.43
		c0,13.24-8.36,19.37-19.29,19.37c-8.69,0-17.8-3.89-19.29-14.74h6.87c0.66,4.8,4.47,8.69,12.5,8.69c7.45,0,12.59-3.31,12.59-13
		v-7.03c-2.9,5.71-8.53,7.53-13.91,7.53c-10.35,0-18.79-6.78-18.79-20.28s8.36-20.61,18.54-20.61c5.46,0,11.09,1.99,14.16,7.29
		v-6.54h6.62V423.43L421.53,423.43z M414.41,403.81c0-10.1-5.88-14.48-12.5-14.48c-7.2,0-13,4.97-13,14.48c0,9.52,5.88,14.4,13,14.4
		C408.54,418.21,414.41,413.91,414.41,403.81"/>
</g>
<g>
	<g>
		<clipPath id="SVGID_2_">
            <path id="SVGID_1_" d="M23.22,339.08c-4.03,0.08-7.28,3.29-7.43,7.3v0.57c0.15,4.05,3.49,7.3,7.58,7.3h97.08
				c-7.26-9.16-18.44-15.07-31.01-15.18L23.22,339.08L23.22,339.08z"/>
		</clipPath>

			<linearGradient id="SVGID_3_" gradientUnits="userSpaceOnUse" x1="-902.4724" y1="-2638.1299" x2="-901.9724" y2="-2638.1299" gradientTransform="matrix(209.3315 0 0 -209.3315 188931.7031 -551897.0625)">
			<stop  offset="0" style="stop-color:#0D46FF"/>
			<stop  offset="0.1957" style="stop-color:#0D46FF"/>
			<stop  offset="1" style="stop-color:#00ECFF"/>
		</linearGradient>
		<rect x="15.78" y="339.08" clip-path="url(#SVGID_2_)" fill="url(#SVGID_3_)" width="104.66" height="15.18"/>
	</g>
</g>
<g>
	<g>
		<clipPath id="SVGID_5_">
            <path id="SVGID_4_" d="M23.37,368.06c-4.1,0-7.43,3.24-7.58,7.29v0.58c0.15,4.06,3.49,7.3,7.58,7.3h105.52
				c0.14-1.36,0.21-2.74,0.21-4.14c0-3.83-0.55-7.53-1.56-11.03H23.37z"/>
		</clipPath>

			<linearGradient id="SVGID_6_" gradientUnits="userSpaceOnUse" x1="-902.7312" y1="-2637.1187" x2="-902.2317" y2="-2637.1187" gradientTransform="matrix(226.6362 0 0 -226.6362 204607.3438 -597290.875)">
			<stop  offset="0" style="stop-color:#0D46FF"/>
			<stop  offset="0.1957" style="stop-color:#0D46FF"/>
			<stop  offset="1" style="stop-color:#00ECFF"/>
		</linearGradient>
		<rect x="15.78" y="368.06" clip-path="url(#SVGID_5_)" fill="url(#SVGID_6_)" width="113.31" height="15.17"/>
	</g>
</g>
<g>
	<g>
		<clipPath id="SVGID_8_">
            <path id="SVGID_7_" d="M23.37,397.02c-4.1,0-7.43,3.24-7.58,7.3v0.58c0.15,4.03,3.43,7.25,7.48,7.3h88.29
				c5.63-3.82,10.22-9.05,13.3-15.17H23.37V397.02z"/>
		</clipPath>

			<linearGradient id="SVGID_9_" gradientUnits="userSpaceOnUse" x1="-902.6101" y1="-2637.3965" x2="-902.1101" y2="-2637.3965" gradientTransform="matrix(218.14 0 0 -218.14 196911.0313 -574917.125)">
			<stop  offset="0" style="stop-color:#0D46FF"/>
			<stop  offset="0.1957" style="stop-color:#0D46FF"/>
			<stop  offset="1" style="stop-color:#00ECFF"/>
		</linearGradient>
		<rect x="15.78" y="397.02" clip-path="url(#SVGID_8_)" fill="url(#SVGID_9_)" width="109.07" height="15.17"/>
	</g>
</g>
<g>
	<g>
		<clipPath id="SVGID_11_">
            <path id="SVGID_10_" d="M23.37,425.99c-4.1,0-7.43,3.25-7.58,7.3v0.58c0.15,4.05,3.49,7.3,7.58,7.3h101.48
				c-3.08-6.12-7.67-11.35-13.3-15.18H23.37L23.37,425.99z"/>
		</clipPath>

			<linearGradient id="SVGID_12_" gradientUnits="userSpaceOnUse" x1="-902.6101" y1="-2637.2642" x2="-902.1101" y2="-2637.2642" gradientTransform="matrix(218.14 0 0 -218.14 196911.0313 -574859.25)">
			<stop  offset="0" style="stop-color:#0D46FF"/>
			<stop  offset="0.1957" style="stop-color:#0D46FF"/>
			<stop  offset="1" style="stop-color:#00ECFF"/>
		</linearGradient>
		<rect x="15.78" y="425.99" clip-path="url(#SVGID_11_)" fill="url(#SVGID_12_)" width="109.07" height="15.18"/>
	</g>
</g>
<g>
	<g>
		<clipPath id="SVGID_14_">
            <path id="SVGID_13_" d="M23.37,454.95c-4.1,0-7.43,3.24-7.58,7.3v0.57c0.15,4.03,3.43,7.24,7.48,7.3h104.28
				c1-3.5,1.56-7.2,1.56-11.03c0-1.4-0.07-2.78-0.21-4.14H23.37z"/>
		</clipPath>

			<linearGradient id="SVGID_15_" gradientUnits="userSpaceOnUse" x1="-902.7312" y1="-2636.7358" x2="-902.2317" y2="-2636.7358" gradientTransform="matrix(226.6362 0 0 -226.6362 204607.3438 -597117.125)">
			<stop  offset="0" style="stop-color:#0D46FF"/>
			<stop  offset="0.1957" style="stop-color:#0D46FF"/>
			<stop  offset="1" style="stop-color:#00ECFF"/>
		</linearGradient>
		<rect x="15.78" y="454.95" clip-path="url(#SVGID_14_)" fill="url(#SVGID_15_)" width="113.31" height="15.17"/>
	</g>
</g>
<g>
	<g>
		<clipPath id="SVGID_17_">
            <path id="SVGID_16_" d="M23.37,483.93c-4.09,0-7.42,3.23-7.58,7.28v0.61c0.16,4.05,3.49,7.29,7.58,7.29h65.72
				c12.71,0,24.03-5.94,31.35-15.18H23.37z"/>
		</clipPath>

			<linearGradient id="SVGID_18_" gradientUnits="userSpaceOnUse" x1="-902.4724" y1="-2637.4375" x2="-901.9724" y2="-2637.4375" gradientTransform="matrix(209.3315 0 0 -209.3315 188931.7031 -551607.3125)">
			<stop  offset="0" style="stop-color:#0D46FF"/>
			<stop  offset="0.1957" style="stop-color:#0D46FF"/>
			<stop  offset="1" style="stop-color:#00ECFF"/>
		</linearGradient>
		<rect x="15.78" y="483.93" clip-path="url(#SVGID_17_)" fill="url(#SVGID_18_)" width="104.66" height="15.18"/>
	</g>
</g>
</svg>
